<mxfile host="65bd71144e">
    <diagram id="cVjqL9Euti9mxhFkRsou" name="Страница 1">
        <mxGraphModel dx="1118" dy="401" grid="1" gridSize="10" guides="1" tooltips="1" connect="1" arrows="1" fold="1" page="1" pageScale="1" pageWidth="827" pageHeight="1169" math="0" shadow="0">
            <root>
                <mxCell id="0"/>
                <mxCell id="1" parent="0"/>
                <mxCell id="U99vmRPRD-P8K3R1Q45t-9" value="" style="edgeStyle=orthogonalEdgeStyle;rounded=0;orthogonalLoop=1;jettySize=auto;html=1;startArrow=none;" parent="1" source="U99vmRPRD-P8K3R1Q45t-5" target="U99vmRPRD-P8K3R1Q45t-7" edge="1">
                    <mxGeometry relative="1" as="geometry"/>
                </mxCell>
                <mxCell id="U99vmRPRD-P8K3R1Q45t-11" style="edgeStyle=orthogonalEdgeStyle;rounded=0;orthogonalLoop=1;jettySize=auto;html=1;entryX=0.5;entryY=0;entryDx=0;entryDy=0;" parent="1" source="U99vmRPRD-P8K3R1Q45t-1" target="U99vmRPRD-P8K3R1Q45t-5" edge="1">
                    <mxGeometry relative="1" as="geometry"/>
                </mxCell>
                <mxCell id="U99vmRPRD-P8K3R1Q45t-1" value="start" style="ellipse;whiteSpace=wrap;html=1;" parent="1" vertex="1">
                    <mxGeometry x="295" y="60" width="110" height="40" as="geometry"/>
                </mxCell>
                <mxCell id="U99vmRPRD-P8K3R1Q45t-4" value="Формирование массива из строк, длина которых меньше либо равна 3 символа из имеющегося массива строк произвольной длины" style="text;html=1;strokeColor=none;fillColor=none;align=center;verticalAlign=middle;whiteSpace=wrap;rounded=0;" parent="1" vertex="1">
                    <mxGeometry x="40" y="10" width="700" height="30" as="geometry"/>
                </mxCell>
                <mxCell id="U99vmRPRD-P8K3R1Q45t-12" value="" style="edgeStyle=orthogonalEdgeStyle;rounded=0;orthogonalLoop=1;jettySize=auto;html=1;" parent="1" source="U99vmRPRD-P8K3R1Q45t-7" target="U99vmRPRD-P8K3R1Q45t-8" edge="1">
                    <mxGeometry relative="1" as="geometry"/>
                </mxCell>
                <mxCell id="U99vmRPRD-P8K3R1Q45t-19" style="edgeStyle=orthogonalEdgeStyle;rounded=0;orthogonalLoop=1;jettySize=auto;html=1;exitX=0;exitY=0.5;exitDx=0;exitDy=0;entryX=0.5;entryY=0;entryDx=0;entryDy=0;" parent="1" source="U99vmRPRD-P8K3R1Q45t-7" target="U99vmRPRD-P8K3R1Q45t-17" edge="1">
                    <mxGeometry relative="1" as="geometry"/>
                </mxCell>
                <mxCell id="U99vmRPRD-P8K3R1Q45t-7" value="for each item in array_in" style="rhombus;whiteSpace=wrap;html=1;" parent="1" vertex="1">
                    <mxGeometry x="240" y="200" width="220" height="80" as="geometry"/>
                </mxCell>
                <mxCell id="U99vmRPRD-P8K3R1Q45t-14" value="Yes" style="edgeStyle=orthogonalEdgeStyle;rounded=0;orthogonalLoop=1;jettySize=auto;html=1;" parent="1" source="U99vmRPRD-P8K3R1Q45t-8" target="U99vmRPRD-P8K3R1Q45t-13" edge="1">
                    <mxGeometry y="10" relative="1" as="geometry">
                        <mxPoint as="offset"/>
                    </mxGeometry>
                </mxCell>
                <mxCell id="U99vmRPRD-P8K3R1Q45t-15" value="No" style="edgeStyle=orthogonalEdgeStyle;rounded=0;orthogonalLoop=1;jettySize=auto;html=1;entryX=1;entryY=0.5;entryDx=0;entryDy=0;" parent="1" source="U99vmRPRD-P8K3R1Q45t-8" target="U99vmRPRD-P8K3R1Q45t-7" edge="1">
                    <mxGeometry x="-0.8261" y="10" relative="1" as="geometry">
                        <Array as="points">
                            <mxPoint x="520" y="350"/>
                            <mxPoint x="520" y="240"/>
                        </Array>
                        <mxPoint as="offset"/>
                    </mxGeometry>
                </mxCell>
                <mxCell id="U99vmRPRD-P8K3R1Q45t-8" value="if len( array_in[ i ] ) &amp;lt;= 3" style="rhombus;whiteSpace=wrap;html=1;" parent="1" vertex="1">
                    <mxGeometry x="240" y="310" width="220" height="80" as="geometry"/>
                </mxCell>
                <mxCell id="U99vmRPRD-P8K3R1Q45t-5" value="array_in = [ &quot;hello&quot;, &quot;2&quot;, &quot;world&quot;, &quot;:-)&quot; ]&lt;br&gt;array_out = Empty.array" style="rounded=0;whiteSpace=wrap;html=1;" parent="1" vertex="1">
                    <mxGeometry x="290" y="120" width="120" height="60" as="geometry"/>
                </mxCell>
                <mxCell id="U99vmRPRD-P8K3R1Q45t-16" style="edgeStyle=orthogonalEdgeStyle;rounded=0;orthogonalLoop=1;jettySize=auto;html=1;exitX=1;exitY=0.5;exitDx=0;exitDy=0;" parent="1" source="U99vmRPRD-P8K3R1Q45t-13" edge="1">
                    <mxGeometry relative="1" as="geometry">
                        <mxPoint x="460" y="240" as="targetPoint"/>
                        <Array as="points">
                            <mxPoint x="520" y="460"/>
                            <mxPoint x="520" y="240"/>
                        </Array>
                    </mxGeometry>
                </mxCell>
                <mxCell id="U99vmRPRD-P8K3R1Q45t-13" value="add array_in[ i ] in the end of array_out" style="rounded=0;whiteSpace=wrap;html=1;" parent="1" vertex="1">
                    <mxGeometry x="290" y="430" width="120" height="60" as="geometry"/>
                </mxCell>
                <mxCell id="U99vmRPRD-P8K3R1Q45t-20" value="" style="edgeStyle=orthogonalEdgeStyle;rounded=0;orthogonalLoop=1;jettySize=auto;html=1;" parent="1" source="U99vmRPRD-P8K3R1Q45t-17" target="U99vmRPRD-P8K3R1Q45t-18" edge="1">
                    <mxGeometry relative="1" as="geometry"/>
                </mxCell>
                <mxCell id="U99vmRPRD-P8K3R1Q45t-17" value="print(array_out)" style="shape=parallelogram;perimeter=parallelogramPerimeter;whiteSpace=wrap;html=1;fixedSize=1;" parent="1" vertex="1">
                    <mxGeometry x="70" y="290" width="120" height="60" as="geometry"/>
                </mxCell>
                <mxCell id="U99vmRPRD-P8K3R1Q45t-18" value="end" style="ellipse;whiteSpace=wrap;html=1;" parent="1" vertex="1">
                    <mxGeometry x="80" y="390" width="100" height="30" as="geometry"/>
                </mxCell>
            </root>
        </mxGraphModel>
    </diagram>
</mxfile>